<?xml version="1.0" encoding="utf-8"?>
<!-- Svg Vector Icons : http://www.onlinewebfonts.com/icon -->
<!DOCTYPE svg PUBLIC "-//W3C//DTD SVG 1.1//EN" "http://www.w3.org/Graphics/SVG/1.1/DTD/svg11.dtd">
<svg version="1.1" xmlns="http://www.w3.org/2000/svg" xmlns:xlink="http://www.w3.org/1999/xlink" x="0px" y="0px" viewBox="0 0 1000 1000" enable-background="new 0 0 1000 1000" xml:space="preserve">
<metadata> Svg Vector Icons : http://www.onlinewebfonts.com/icon </metadata>
<g><g><path d="M885.1,473.2c-4.3-75.2-26.8-144.7-66.6-207.4c-39.8-62.8-92.5-112.5-158.1-149c-65.2-36.3-135.5-54.6-211.7-54.6c-59.4,0-116.3,11.7-170.5,35c-54,23.2-101.2,54-140.3,92.9C99,228.8,67.8,275.3,44.5,329.5c-23.2,54-34.5,110.6-34.5,170C10,558.9,21.3,616,44.5,670c23.3,54.2,54.6,100.6,93.4,139.4c39.3,39.3,86.3,70.2,140.3,93.4c54.2,23.3,111.1,35,170.5,35c66.6,0,131.2-14.8,194-45l-22.5-48.9c-54.1,27.3-111.6,41.2-171.5,41.2c-69.5,0-134.2-17.1-193.5-51.7c-59-34.4-106-81.4-140.3-140.3C80.3,633.7,63.2,569,63.2,499.5c0-69.5,17.2-133.6,51.7-192.5c34.5-58.9,81.4-106,140.3-140.3c59.3-34.6,124.1-51.7,193.5-51.7c49.8,0,97.7,9.7,143.2,28.3c46,18.8,85.7,43.6,119.8,75.7c34,32.1,61.2,70,82.9,114.5c21.5,44.1,34,90.5,37.4,139.9H727l129.8,129.3L990,473.2H885.1L885.1,473.2z"/></g><g></g><g></g><g></g><g></g><g></g><g></g><g></g><g></g><g></g><g></g><g></g><g></g><g></g><g></g><g></g></g>
</svg>